<svg width="800" height="600" xmlns="http://www.w3.org/2000/svg">
  <rect width="800" height="600" fill="#f8f9fa"/>
  <text x="400" y="250" font-family="Arial" font-size="36" text-anchor="middle" fill="#0072ce">Vicor Picor IC</text>
  <text x="400" y="300" font-family="Arial" font-size="24" text-anchor="middle" fill="#6B7280">Power Management Solutions</text>
  
  <!-- IC representation -->
  <rect x="300" y="350" width="200" height="200" rx="15" fill="#e6f0ff" stroke="#0072ce" stroke-width="2"/>
  
  <!-- Pins -->
  <rect x="290" y="370" width="10" height="20" fill="#f97316"/>
  <rect x="290" y="400" width="10" height="20" fill="#f97316"/>
  <rect x="290" y="430" width="10" height="20" fill="#f97316"/>
  <rect x="290" y="460" width="10" height="20" fill="#f97316"/>
  
  <rect x="490" y="370" width="10" height="20" fill="#f97316"/>
  <rect x="490" y="400" width="10" height="20" fill="#f97316"/>
  <rect x="490" y="430" width="10" height="20" fill="#f97316"/>
  <rect x="490" y="460" width="10" height="20" fill="#f97316"/>
  
  <rect x="320" y="340" width="20" height="10" fill="#f97316"/>
  <rect x="350" y="340" width="20" height="10" fill="#f97316"/>
  <rect x="380" y="340" width="20" height="10" fill="#f97316"/>
  <rect x="410" y="340" width="20" height="10" fill="#f97316"/>
  <rect x="440" y="340" width="20" height="10" fill="#f97316"/>
  
  <rect x="320" y="550" width="20" height="10" fill="#f97316"/>
  <rect x="350" y="550" width="20" height="10" fill="#f97316"/>
  <rect x="380" y="550" width="20" height="10" fill="#f97316"/>
  <rect x="410" y="550" width="20" height="10" fill="#f97316"/>
  <rect x="440" y="550" width="20" height="10" fill="#f97316"/>
  
  <!-- Circuit elements inside -->
  <circle cx="370" cy="420" r="20" fill="#0072ce" opacity="0.5"/>
  <circle cx="430" cy="420" r="20" fill="#0072ce" opacity="0.5"/>
  <rect x="390" y="450" width="20" height="40" fill="#0072ce" opacity="0.5"/>
  
  <!-- Waveform -->
  <path d="M 150 150 L 200 120 L 250 180 L 300 100 L 350 160 L 400 130 L 450 170 L 500 110 L 550 150" 
        stroke="#f97316" stroke-width="3" fill="none"/>
</svg>